<svg id="Layer_1" enable-background="new 0 0 480 480" height="512" viewBox="0 0 480 480" width="512" xmlns="http://www.w3.org/2000/svg"><path d="m347.7 132c16.586 0 30.421 12.678 31.88 29.19l24.35 276c1.65 18.71-13.09 34.81-31.88 34.81h-264.1c-18.79 0-33.53-16.1-31.88-34.81l24.35-276c1.46-16.52 15.3-29.19 31.88-29.19z" fill="#b9dcff"/><path d="m356.34 182.049c-115.464 41.593-190.873 141.868-205.482 257.191-2.372 18.723-18.294 32.76-37.166 32.76h-5.741c-18.79 0-33.53-16.1-31.88-34.81l24.35-276c1.46-16.52 15.3-29.19 31.88-29.19 1.453 0 215.691-.015 216.708.026 27.959 1.128 33.658 40.54 7.331 50.023z" fill="#d1e7ff"/><path d="m372.052 480h-264.104c-23.46 0-41.906-20.152-39.845-43.516l24.353-276c1.835-20.799 18.964-36.484 39.845-36.484h24.699v-41c0-45.767 37.233-83 83-83s83 37.233 83 83v41h24.699c4.418 0 8 3.582 8 8s-3.582 8-8 8h-24.699v36c0 4.418-3.582 8-8 8s-8-3.582-8-8v-36h-105c-4.418 0-8-3.582-8-8s3.582-8 8-8h105v-41c0-36.944-30.056-67-67-67s-67 30.056-67 67v93c0 4.418-3.582 8-8 8s-8-3.582-8-8v-36h-24.699c-12.528 0-22.806 9.411-23.907 21.891l-24.353 276c-1.241 14.062 9.807 26.109 23.907 26.109h264.104c14.117 0 25.147-12.064 23.907-26.109l-24.353-276c-.388-4.401 2.865-8.284 7.266-8.672 4.399-.385 8.284 2.865 8.672 7.266l24.353 276c2.062 23.369-16.39 43.515-39.845 43.515zm-178.052-69h-58c-4.418 0-8 3.582-8 8s3.582 8 8 8h58c4.418 0 8-3.582 8-8s-3.582-8-8-8zm0-40h-58c-4.418 0-8 3.582-8 8s3.582 8 8 8h58c4.418 0 8-3.582 8-8s-3.582-8-8-8z" fill="#2e58ff"/></svg>