<?xml version="1.0" encoding="iso-8859-1"?>
<!-- Generator: Adobe Illustrator 19.0.0, SVG Export Plug-In . SVG Version: 6.00 Build 0)  -->
<svg version="1.1" id="Capa_1" xmlns="http://www.w3.org/2000/svg" xmlns:xlink="http://www.w3.org/1999/xlink" x="0px" y="0px"
	 viewBox="0 0 331.485 331.485" style="enable-background:new 0 0 331.485 331.485;" xml:space="preserve">
<g>
	<g>
		<path d="M323.186,139.424c-0.226-0.089-0.471-0.115-0.711-0.077c-16.931,2.406-33.611,6.329-49.84,11.72
			c-12.849,4.14-25.029,10.122-36.16,17.76v0c-5.48,3.872-10.405,8.475-14.64,13.68c-3.702,4.49-6.562,9.612-8.44,15.12
			c-1.486,4.607-2.123,9.445-1.88,14.28c0.27,4.955,1.393,9.827,3.32,14.4c0.803,1.922,1.725,3.792,2.76,5.6
			c1.07,1.977,2.259,3.887,3.56,5.72c0.447,0.588,1.281,0.713,1.88,0.28h0.2c3.889-4.409,7.37-9.162,10.4-14.2
			c2.96-4.88,5.56-9.8,8-14.68c3.754-7.506,7.989-14.761,12.68-21.72c4.99-7.233,11.203-13.541,18.36-18.64
			c2.756-1.676,6.348-0.801,8.024,1.955c1.517,2.493,0.96,5.724-1.304,7.565c-13.24,9.36-20.24,22.64-27.44,36.28
			c-2.88,5.52-5.84,11.08-9.16,16.48c-2.69,4.442-5.683,8.692-8.96,12.72c-16.68,16.64-43.68,28.8-100.68,26
			c-3.954-0.199-7.321,2.846-7.52,6.8c-0.199,3.954,2.846,7.321,6.8,7.52c61.2,3,91.12-10,109.84-28
			c4.832,2.798,9.991,4.988,15.36,6.52c6.772,1.977,13.872,2.575,20.88,1.76c2.718-0.32,5.398-0.91,8-1.76
			c2.477-0.82,4.863-1.892,7.12-3.2c2.287-1.335,4.42-2.918,6.36-4.72c1.895-1.868,3.584-3.933,5.04-6.16
			c4.031-6.016,6.694-12.843,7.8-20c1.282-8.659,1.282-17.461,0-26.12c-1.225-11.362-0.481-22.851,2.2-33.96
			c2.136-9.307,5.122-18.399,8.92-27.16C324.23,140.488,323.886,139.699,323.186,139.424z"/>
	</g>
</g>
<g>
	<g>
		<path d="M264.235,132.027c-27.76-54.8-53.96-74.4-78.96-81.44c0.002-5.583-0.683-11.145-2.04-16.56
			c-1.672-6.866-4.705-13.327-8.92-19c-1.618-2.132-3.44-4.101-5.44-5.88c-1.957-1.735-4.088-3.263-6.36-4.56
			c-2.298-1.248-4.726-2.241-7.24-2.96c-2.603-0.797-5.286-1.306-8-1.52c-7.278-0.48-14.571,0.654-21.36,3.32
			c-8.167,3.167-15.822,7.521-22.72,12.92c-9.193,6.672-19.462,11.719-30.36,14.92c-9.135,2.8-18.508,4.755-28,5.84
			c-0.745,0.099-1.267,0.784-1.168,1.528c0.033,0.246,0.132,0.478,0.288,0.672c10.538,13.465,22.266,25.955,35.04,37.32
			c10.074,9.091,21.42,16.664,33.68,22.48c6.09,2.822,12.536,4.8,19.16,5.88c5.8,0.947,11.724,0.825,17.48-0.36
			c4.738-1.018,9.251-2.888,13.32-5.52c4.153-2.714,7.807-6.124,10.8-10.08c1.267-1.659,2.43-3.396,3.48-5.2
			c1.068-1.837,2.03-3.733,2.88-5.68c0.283-0.674-0.017-1.452-0.68-1.76h-0.28c-5.77-1.171-11.634-1.813-17.52-1.92
			c-5.68,0-11.28,0-16.8,0.28c-8.378,0.544-16.782,0.544-25.16,0c-8.757-0.698-17.326-2.918-25.32-6.56
			c-2.87-1.472-4.002-4.992-2.53-7.862c1.384-2.698,4.604-3.888,7.41-2.738c14.76,6.8,29.72,6.24,45.12,5.64
			c6.2-0.24,12.48-0.48,18.84-0.32c5.267,0.111,10.52,0.592,15.72,1.44c22.76,6.16,46.76,23.44,72.88,74.2
			c1.8,3.524,6.116,4.92,9.64,3.12C264.639,139.867,266.036,135.551,264.235,132.027z"/>
	</g>
</g>
<g>
	<g>
		<path d="M114.195,241.227c-0.553-6.702-2.02-13.296-4.36-19.6c-2.076-5.496-5.14-10.566-9.04-14.96
			c-3.252-3.588-7.128-6.557-11.44-8.76c-4.463-2.24-9.281-3.688-14.24-4.28c-2.07-0.263-4.154-0.397-6.24-0.4
			c-2.125-0.001-4.249,0.119-6.36,0.36c-0.736,0.084-1.27,0.742-1.2,1.48c-0.01,0.093-0.01,0.187,0,0.28
			c1.873,5.536,4.243,10.891,7.08,16c2.72,5,5.68,9.72,8.64,14.4c4.628,7.002,8.797,14.298,12.48,21.84
			c3.767,7.932,6.123,16.459,6.96,25.2c0.528,3.182-1.624,6.189-4.806,6.717c-3.182,0.528-6.189-1.624-6.717-4.806
			c-0.046-0.275-0.071-0.552-0.077-0.831c-1.48-16-9.48-28.84-17.68-41.88c-3.32-5.28-6.68-10.6-9.68-16
			c-2.547-4.611-4.766-9.396-6.64-14.32c-6.04-22.76-3.08-52.2,28-100.2c1.93-3.452,0.696-7.814-2.755-9.744
			c-3.142-1.757-7.1-0.907-9.245,1.984c-33.2,51.48-36.88,84-30.64,109.16c-4.837,2.785-9.311,6.157-13.32,10.04
			c-5.111,4.873-9.191,10.721-12,17.2c-1.133,2.414-2.031,4.933-2.68,7.52c-0.535,2.565-0.803,5.179-0.8,7.8
			c0.007,2.693,0.315,5.376,0.92,8c0.626,2.511,1.51,4.951,2.64,7.28c3.216,6.572,7.846,12.35,13.56,16.92
			c6.831,5.484,14.433,9.932,22.56,13.2c10.436,4.597,20.002,10.957,28.28,18.8c6.986,6.509,13.359,13.646,19.04,21.32
			c0.447,0.588,1.281,0.713,1.88,0.28c0.222-0.159,0.39-0.382,0.48-0.64c6.388-15.844,11.341-32.23,14.8-48.96
			C114.42,268.358,115.296,254.749,114.195,241.227z"/>
	</g>
</g>
<g>
</g>
<g>
</g>
<g>
</g>
<g>
</g>
<g>
</g>
<g>
</g>
<g>
</g>
<g>
</g>
<g>
</g>
<g>
</g>
<g>
</g>
<g>
</g>
<g>
</g>
<g>
</g>
<g>
</g>
</svg>
